# xmcd
#
# Track frame offsets:
# 182
# 13195
# 29072
# 46225
# 60332
# 72430
# 92115
# 111615
# 127905
# 139965
# 152960
# 166182
# 184207
# 204097
# 219447
# 235465
#
# Disc length: 3363 seconds
#
#
# Revision: 0
# Processed by: cddbd v1.5.2PL0 Copyright (c) Steve Scherf et al.
# Submitted via: FreeRIP 2.35 
#
DISCID=e90d2110
DTITLE=Kenny Rogers - Country Classics
DYEAR=1900
DGENRE=country
TTITLE0=Ruby, Don't Take your Love To Town
TTITLE1=Tha Gambler
TTITLE2=Desperado
TTITLE3=Son Of Hickory Holler's tramp
TTITLE4=Rueben James
TTITLE5=Something's Burning
TTITLE6=Long Arm Of the Law
TTITLE7=Green, green grass Of Home
TTITLE8=Blaze Of Glory
TTITLE9=Laura (What's He Got That I Ain't Got?)
TTITLE10=Tulsa Turnaround
TTITLE11=Scarlet Fever
TTITLE12=Through The Years
TTITLE13=Just dropped In (To See What Condition My Condition Was In)
TTITLE14=Sail Away
TTITLE15=San Francisco Mabel Joy
EXTD=Reader's Digest Collection
EXTT0=
EXTT1=
EXTT2=
EXTT3=
EXTT4=
EXTT5=
EXTT6=
EXTT7=
EXTT8=
EXTT9=
EXTT10=
EXTT11=
EXTT12=
EXTT13=
EXTT14=
EXTT15=
PLAYORDER=
